<svg xmlns="http://www.w3.org/2000/svg" width="1024" height="1024" viewBox="0 0 1024 1024"><g transform="rotate(-38 512 512)"><path fill="#211C17" fill-rule="evenodd" d="M176,446 H848 A66,66 0 0 1 914,512 V512 A66,66 0 0 1 848,578 H176 A66,66 0 0 1 110,512 V512 A66,66 0 0 1 176,446 Z M243,512 A27,27 0 1 0 297,512 A27,27 0 1 0 243,512 Z M367,512 A25,25 0 1 0 417,512 A25,25 0 1 0 367,512 Z M544,512 A22,22 0 1 0 588,512 A22,22 0 1 0 544,512 Z M604,512 A22,22 0 1 0 648,512 A22,22 0 1 0 604,512 Z M664,512 A22,22 0 1 0 708,512 A22,22 0 1 0 664,512 Z M724,512 A22,22 0 1 0 768,512 A22,22 0 1 0 724,512 Z M784,512 A22,22 0 1 0 828,512 A22,22 0 1 0 784,512 Z M844,512 A22,22 0 1 0 888,512 A22,22 0 1 0 844,512 Z M176,446 H188 V578 H176 Z M842,446 H854 V578 H842 Z"/></g></svg>
